<?xml version="1.0" encoding="UTF-8"?>
<!DOCTYPE svg PUBLIC "-//W3C//DTD SVG 1.1//EN" "http://www.w3.org/Graphics/SVG/1.1/DTD/svg11.dtd">
<svg xmlns="http://www.w3.org/2000/svg" version="1.1" width="969px" height="689px" style="shape-rendering:geometricPrecision; text-rendering:geometricPrecision; image-rendering:optimizeQuality; fill-rule:evenodd; clip-rule:evenodd" xmlns:xlink="http://www.w3.org/1999/xlink">
<g><path style="opacity:0.949" fill="#9bdace" d="M 503.5,-0.5 C 505.833,-0.5 508.167,-0.5 510.5,-0.5C 510.918,0.221579 511.584,0.721579 512.5,1C 517.684,1.17386 522.684,1.67386 527.5,2.5C 519.141,3.15354 511.141,2.15354 503.5,-0.5 Z"/></g>
<g><path style="opacity:0.996" fill="#5bc2af" d="M 484.5,-0.5 C 490.833,-0.5 497.167,-0.5 503.5,-0.5C 511.141,2.15354 519.141,3.15354 527.5,2.5C 527.833,2.5 528.167,2.5 528.5,2.5C 528.918,3.22158 529.584,3.72158 530.5,4C 541.53,4.86177 552.53,5.6951 563.5,6.5C 568.73,8.1564 574.063,9.48973 579.5,10.5C 587.585,13.0227 595.919,15.0227 604.5,16.5C 604.833,16.5 605.167,16.5 605.5,16.5C 613.417,18.8292 621.417,21.1625 629.5,23.5C 633.191,25.2921 637.191,26.6254 641.5,27.5C 644.308,28.7093 646.975,30.0426 649.5,31.5C 653.556,33.1995 657.556,35.1995 661.5,37.5C 665.086,38.9195 668.753,39.9195 672.5,40.5C 680.325,43.6126 687.991,47.2793 695.5,51.5C 697.045,52.4519 698.712,52.7852 700.5,52.5C 700.5,52.8333 700.5,53.1667 700.5,53.5C 701.671,54.3446 703.005,55.0113 704.5,55.5C 705.514,56.6737 706.847,57.3404 708.5,57.5C 714.671,61.9051 721.337,65.5718 728.5,68.5C 731.976,71.6232 735.976,73.9565 740.5,75.5C 740.5,76.1667 740.833,76.5 741.5,76.5C 742.29,77.4013 743.29,78.0679 744.5,78.5C 748.148,81.6599 752.148,84.3265 756.5,86.5C 756.5,87.1667 756.833,87.5 757.5,87.5C 758.29,88.4013 759.29,89.0679 760.5,89.5C 762.86,91.8532 765.527,93.8532 768.5,95.5C 769.795,96.4884 771.128,97.4884 772.5,98.5C 772.5,99.1667 772.833,99.5 773.5,99.5C 773.821,101.048 774.821,101.715 776.5,101.5C 777.436,102.974 778.77,103.974 780.5,104.5C 780.5,105.833 781.167,106.5 782.5,106.5C 785.489,109.478 788.823,112.145 792.5,114.5C 796.183,118.18 800.183,121.514 804.5,124.5C 804.5,125.167 804.833,125.5 805.5,125.5C 806.167,126.833 807.167,127.833 808.5,128.5C 808.5,129.167 808.833,129.5 809.5,129.5C 810.167,130.833 811.167,131.833 812.5,132.5C 812.5,133.167 812.833,133.5 813.5,133.5C 814.167,135.5 815.5,136.833 817.5,137.5C 818.5,138.167 819.5,138.833 820.5,139.5C 824.167,143.833 828.167,147.833 832.5,151.5C 832.5,152.167 832.833,152.5 833.5,152.5C 834.167,153.833 835.167,154.833 836.5,155.5C 836.5,155.833 836.5,156.167 836.5,156.5C 837.5,158.167 838.833,159.5 840.5,160.5C 841.5,162.167 842.833,163.5 844.5,164.5C 844.5,165.167 844.833,165.5 845.5,165.5C 845.738,167.404 846.738,168.738 848.5,169.5C 849.604,171.389 850.937,173.055 852.5,174.5C 852.5,175.167 852.833,175.5 853.5,175.5C 854.026,177.23 855.026,178.564 856.5,179.5C 856.5,180.833 857.167,181.5 858.5,181.5C 858.427,183.027 859.094,184.027 860.5,184.5C 861.604,186.389 862.937,188.055 864.5,189.5C 864.5,190.167 864.833,190.5 865.5,190.5C 865.738,192.404 866.738,193.738 868.5,194.5C 869.449,196.777 870.782,198.777 872.5,200.5C 873.475,202.795 874.808,204.795 876.5,206.5C 876.5,207.167 876.833,207.5 877.5,207.5C 878.026,209.23 879.026,210.564 880.5,211.5C 880.328,212.492 880.662,213.158 881.5,213.5C 882.263,215.368 883.263,217.035 884.5,218.5C 884.5,219.167 884.833,219.5 885.5,219.5C 886.11,221.434 887.11,223.101 888.5,224.5C 888.328,225.492 888.662,226.158 889.5,226.5C 890.026,228.23 891.026,229.564 892.5,230.5C 892.328,231.492 892.662,232.158 893.5,232.5C 894.263,234.368 895.263,236.035 896.5,237.5C 896.157,239.483 896.824,240.817 898.5,241.5C 898.932,242.71 899.599,243.71 900.5,244.5C 901.468,247.1 902.801,249.434 904.5,251.5C 905.326,254.485 906.659,257.151 908.5,259.5C 908.5,259.833 908.5,260.167 908.5,260.5C 909.596,263.032 910.929,265.365 912.5,267.5C 912.5,269.167 912.5,270.833 912.5,272.5C 873.322,278.294 834.155,284.294 795,290.5C 792.966,290.646 791.299,289.98 790,288.5C 785.807,280.299 780.973,272.632 775.5,265.5C 774.864,263.205 773.531,261.539 771.5,260.5C 770.833,260.167 770.167,259.833 769.5,259.5C 765.252,253.351 760.752,247.351 756,241.5C 745.3,229.634 734.134,218.301 722.5,207.5C 721.415,205.413 719.749,204.08 717.5,203.5C 638.631,141.094 548.631,113.594 447.5,121C 367.58,129.329 298.58,160.829 240.5,215.5C 238.833,216.5 237.5,217.833 236.5,219.5C 230.462,224.537 225.129,230.203 220.5,236.5C 213.116,243.55 206.449,251.217 200.5,259.5C 200.5,259.833 200.5,260.167 200.5,260.5C 197.395,263.275 195.062,266.608 193.5,270.5C 192.833,270.5 192.5,270.833 192.5,271.5C 190.937,272.945 189.604,274.611 188.5,276.5C 188.5,276.833 188.5,277.167 188.5,277.5C 186.674,279.147 185.34,281.147 184.5,283.5C 177.412,294.002 171.079,305.002 165.5,316.5C 164.662,316.842 164.328,317.508 164.5,318.5C 163.264,320.649 162.264,322.982 161.5,325.5C 160.662,325.842 160.328,326.508 160.5,327.5C 158.657,329.853 157.323,332.52 156.5,335.5C 156.5,335.833 156.5,336.167 156.5,336.5C 154.733,338.792 153.733,341.458 153.5,344.5C 152.833,344.5 152.5,344.833 152.5,345.5C 150.796,348.939 149.462,352.605 148.5,356.5C 148.5,356.833 148.5,357.167 148.5,357.5C 146.565,361.213 145.232,365.213 144.5,369.5C 142.39,373.502 141.057,377.835 140.5,382.5C 140.5,383.167 140.5,383.833 140.5,384.5C 138.642,389.255 137.309,394.255 136.5,399.5C 127.695,437.587 126.362,475.92 132.5,514.5C 132.5,515.5 132.5,516.5 132.5,517.5C 133.097,524.766 134.43,531.766 136.5,538.5C 136.5,539.167 136.5,539.833 136.5,540.5C 137.387,545.722 138.721,550.722 140.5,555.5C 140.5,556.167 140.5,556.833 140.5,557.5C 141.61,562.014 142.943,566.347 144.5,570.5C 144.328,571.492 144.662,572.158 145.5,572.5C 145.975,576.084 146.975,579.417 148.5,582.5C 148.328,583.492 148.662,584.158 149.5,584.5C 149.98,587.443 150.98,590.11 152.5,592.5C 152.263,593.791 152.596,594.791 153.5,595.5C 153.707,598.241 154.707,600.574 156.5,602.5C 156.263,603.791 156.596,604.791 157.5,605.5C 157.992,607.819 158.992,609.819 160.5,611.5C 160.5,614.167 160.5,616.833 160.5,619.5C 126.595,636.702 92.7616,654.036 59,671.5C 56.5431,670.655 54.8764,668.988 54,666.5C 51.6667,658.833 49.3333,651.167 47,643.5C 46.6174,642.944 46.1174,642.611 45.5,642.5C 45.6621,640.473 45.4955,638.473 45,636.5C 44.2567,633.808 43.09,631.475 41.5,629.5C 38.3999,619.312 35.3999,608.979 32.5,598.5C 32.6633,596.143 32.4966,593.81 32,591.5C 31.6174,590.944 31.1174,590.611 30.5,590.5C 31.0545,586.988 30.3878,583.988 28.5,581.5C 27.2128,575.669 26.3795,569.669 26,563.5C 25.6174,562.944 25.1174,562.611 24.5,562.5C 24.665,559.15 24.4983,555.817 24,552.5C 23.6174,551.944 23.1174,551.611 22.5,551.5C 22.665,548.15 22.4983,544.817 22,541.5C 21.3918,539.934 20.5585,538.6 19.5,537.5C 19.5,532.833 19.5,528.167 19.5,523.5C 18.7582,517.882 18.2582,512.215 18,506.5C 17.9504,504.256 17.1171,502.589 15.5,501.5C 15.5,496.167 15.5,490.833 15.5,485.5C 15.6655,481.486 15.4988,477.486 15,473.5C 14.7216,472.584 14.2216,471.918 13.5,471.5C 13.5,462.167 13.5,452.833 13.5,443.5C 14.2216,443.082 14.7216,442.416 15,441.5C 15.4983,438.183 15.665,434.85 15.5,431.5C 15.5,427.167 15.5,422.833 15.5,418.5C 16.2216,418.082 16.7216,417.416 17,416.5C 17.4988,412.514 17.6655,408.514 17.5,404.5C 17.5,402.167 17.5,399.833 17.5,397.5C 18.9265,395.852 19.7599,393.852 20,391.5C 20.3905,386.146 20.8905,380.812 21.5,375.5C 21.3359,372.813 21.5026,370.146 22,367.5C 22.9865,363.107 24.1531,358.774 25.5,354.5C 27.9174,349.607 29.2508,344.274 29.5,338.5C 31.7979,332.772 33.4646,326.772 34.5,320.5C 35.5,320.5 36.5,320.5 37.5,320.5C 39.3206,314.278 40.6539,307.945 41.5,301.5C 43.2413,299.605 44.2413,297.272 44.5,294.5C 46.5755,291.925 47.9088,288.925 48.5,285.5C 50.4213,280.909 52.2546,276.243 54,271.5C 57.728,263.521 61.8947,255.855 66.5,248.5C 68.3964,246.163 69.7297,243.496 70.5,240.5C 72.7964,239.267 74.1298,237.267 74.5,234.5C 76.455,230.555 78.7883,226.888 81.5,223.5C 84.174,221.282 86.5073,218.615 88.5,215.5C 89.4519,213.955 89.7852,212.288 89.5,210.5C 92.0142,206.139 95.0142,202.139 98.5,198.5C 100.531,197.461 101.864,195.795 102.5,193.5C 105.478,191.535 107.478,188.868 108.5,185.5C 111.149,181.319 114.483,177.653 118.5,174.5C 121.934,172.737 124.267,170.07 125.5,166.5C 129.576,164.093 132.576,160.76 134.5,156.5C 135.833,153.833 137.833,151.833 140.5,150.5C 148.185,144.48 155.185,137.813 161.5,130.5C 166.575,125.127 172.241,120.461 178.5,116.5C 181.135,115.527 183.135,113.86 184.5,111.5C 186.36,110.061 188.027,108.395 189.5,106.5C 201.534,97.9648 213.701,89.6315 226,81.5C 230.084,79.2302 234.25,77.2302 238.5,75.5C 241.554,72.6529 245.221,70.8195 249.5,70C 250.381,69.2917 251.047,68.4584 251.5,67.5C 262.155,60.6761 273.155,54.6761 284.5,49.5C 286.117,48.962 287.784,48.6287 289.5,48.5C 291.784,47.9708 293.784,46.9708 295.5,45.5C 295.5,45.1667 295.5,44.8333 295.5,44.5C 299.995,44.9075 303.662,43.5742 306.5,40.5C 308.527,40.6621 310.527,40.4955 312.5,40C 316.858,37.7245 321.192,35.5578 325.5,33.5C 328.833,32.1667 332.167,30.8333 335.5,29.5C 338.62,28.1403 341.953,27.3069 345.5,27C 346.056,26.6174 346.389,26.1174 346.5,25.5C 349.833,24.8333 353.167,24.1667 356.5,23.5C 362.241,21.9323 367.908,20.2656 373.5,18.5C 379.654,17.8181 385.654,16.6514 391.5,15C 398.636,12.6149 405.636,10.4483 412.5,8.5C 415.713,8.81 418.713,8.47667 421.5,7.5C 439.182,5.51123 456.849,3.6779 474.5,2C 478.133,1.85107 481.466,1.01774 484.5,-0.5 Z"/></g>
<g><path style="opacity:0.6" fill="#b8e5dc" d="M 528.5,2.5 C 540.425,2.83929 552.092,4.17262 563.5,6.5C 552.53,5.6951 541.53,4.86177 530.5,4C 529.584,3.72158 528.918,3.22158 528.5,2.5 Z"/></g>
<g><path style="opacity:0.088" fill="#f2faf8" d="M 510.5,-0.5 C 512.5,-0.5 514.5,-0.5 516.5,-0.5C 537.744,1.42564 559.077,3.75897 580.5,6.5C 580.5,7.5 580.5,8.5 580.5,9.5C 589.932,10.5166 599.265,12.1832 608.5,14.5C 610.332,15.0568 611.665,16.0568 612.5,17.5C 610.283,16.6314 607.95,16.298 605.5,16.5C 605.167,16.5 604.833,16.5 604.5,16.5C 604.389,15.8826 604.056,15.3826 603.5,15C 595.471,13.2609 587.471,11.7609 579.5,10.5C 574.063,9.48973 568.73,8.1564 563.5,6.5C 552.092,4.17262 540.425,2.83929 528.5,2.5C 528.167,2.5 527.833,2.5 527.5,2.5C 522.684,1.67386 517.684,1.17386 512.5,1C 511.584,0.721579 510.918,0.221579 510.5,-0.5 Z"/></g>
<g><path style="opacity:0.859" fill="#ace0d6" d="M 480.5,-0.5 C 481.833,-0.5 483.167,-0.5 484.5,-0.5C 481.466,1.01774 478.133,1.85107 474.5,2C 456.849,3.6779 439.182,5.51123 421.5,7.5C 421.611,6.88258 421.944,6.38258 422.5,6C 442.059,4.26404 461.392,2.09737 480.5,-0.5 Z"/></g>
<g><path style="opacity:0.929" fill="#8cd4c7" d="M 412.5,8.5 C 405.636,10.4483 398.636,12.6149 391.5,15C 385.654,16.6514 379.654,17.8181 373.5,18.5C 373.611,17.8826 373.944,17.3826 374.5,17C 386.91,13.4823 399.577,10.6489 412.5,8.5 Z"/></g>
<g><path style="opacity:0.853" fill="#86d2c4" d="M 579.5,10.5 C 587.471,11.7609 595.471,13.2609 603.5,15C 604.056,15.3826 604.389,15.8826 604.5,16.5C 595.919,15.0227 587.585,13.0227 579.5,10.5 Z"/></g>
<g><path style="opacity:0.871" fill="#9cdace" d="M 373.5,18.5 C 367.908,20.2656 362.241,21.9323 356.5,23.5C 356.953,22.5416 357.619,21.7083 358.5,21C 363.254,19.1113 368.254,18.278 373.5,18.5 Z"/></g>
<g><path style="opacity:0.514" fill="#bae5dd" d="M 605.5,16.5 C 607.95,16.298 610.283,16.6314 612.5,17.5C 618.163,19.338 623.83,21.338 629.5,23.5C 621.417,21.1625 613.417,18.8292 605.5,16.5 Z"/></g>
<g><path style="opacity:0.073" fill="#f1faf8" d="M 469.5,-0.5 C 473.167,-0.5 476.833,-0.5 480.5,-0.5C 461.392,2.09737 442.059,4.26404 422.5,6C 421.944,6.38258 421.611,6.88258 421.5,7.5C 418.713,8.47667 415.713,8.81 412.5,8.5C 399.577,10.6489 386.91,13.4823 374.5,17C 373.944,17.3826 373.611,17.8826 373.5,18.5C 368.254,18.278 363.254,19.1113 358.5,21C 357.619,21.7083 356.953,22.5416 356.5,23.5C 353.167,24.1667 349.833,24.8333 346.5,25.5C 342.278,25.6809 338.611,27.0142 335.5,29.5C 332.167,30.8333 328.833,32.1667 325.5,33.5C 322.279,34.5054 318.946,35.3387 315.5,36C 312.902,38.5277 309.902,40.0277 306.5,40.5C 302.677,41.6317 299.011,42.965 295.5,44.5C 295.5,44.8333 295.5,45.1667 295.5,45.5C 292.687,45.0246 290.687,46.0246 289.5,48.5C 287.784,48.6287 286.117,48.962 284.5,49.5C 284.5,48.5 284.5,47.5 284.5,46.5C 301.642,40.1712 318.642,33.3379 335.5,26C 357.544,19.0907 379.877,13.2574 402.5,8.5C 402.709,7.91395 403.043,7.41395 403.5,7C 425.469,3.7272 447.469,1.2272 469.5,-0.5 Z"/></g>
<g><path style="opacity:0.318" fill="#d1eee8" d="M 629.5,23.5 C 633.952,23.8306 637.952,25.1639 641.5,27.5C 637.191,26.6254 633.191,25.2921 629.5,23.5 Z"/></g>
<g><path style="opacity:0.8" fill="#ade0d7" d="M 346.5,25.5 C 346.389,26.1174 346.056,26.6174 345.5,27C 341.953,27.3069 338.62,28.1403 335.5,29.5C 338.611,27.0142 342.278,25.6809 346.5,25.5 Z"/></g>
<g><path style="opacity:0.105" fill="#f4fbf9" d="M 612.5,17.5 C 621.76,19.8151 631.094,22.1484 640.5,24.5C 647.836,26.8348 654.503,30.1681 660.5,34.5C 656.972,32.9674 653.305,31.9674 649.5,31.5C 646.975,30.0426 644.308,28.7093 641.5,27.5C 637.952,25.1639 633.952,23.8306 629.5,23.5C 623.83,21.338 618.163,19.338 612.5,17.5 Z"/></g>
<g><path style="opacity:0.224" fill="#e9f7f4" d="M 660.5,34.5 C 662.483,34.1568 663.817,34.8235 664.5,36.5C 662.847,36.3404 661.514,35.6737 660.5,34.5 Z"/></g>
<g><path style="opacity:0.894" fill="#93d7ca" d="M 325.5,33.5 C 321.192,35.5578 316.858,37.7245 312.5,40C 310.527,40.4955 308.527,40.6621 306.5,40.5C 309.902,40.0277 312.902,38.5277 315.5,36C 318.946,35.3387 322.279,34.5054 325.5,33.5 Z"/></g>
<g><path style="opacity:0.984" fill="#84d1c3" d="M 649.5,31.5 C 653.305,31.9674 656.972,32.9674 660.5,34.5C 661.514,35.6737 662.847,36.3404 664.5,36.5C 667.167,37.8333 669.833,39.1667 672.5,40.5C 668.753,39.9195 665.086,38.9195 661.5,37.5C 657.556,35.1995 653.556,33.1995 649.5,31.5 Z"/></g>
<g><path style="opacity:0.863" fill="#a5ddd3" d="M 306.5,40.5 C 303.662,43.5742 299.995,44.9075 295.5,44.5C 299.011,42.965 302.677,41.6317 306.5,40.5 Z"/></g>
<g><path style="opacity:0.136" fill="#ebf7f5" d="M 664.5,36.5 C 667.247,36.1866 669.914,36.52 672.5,37.5C 678.973,41.0725 685.64,44.0725 692.5,46.5C 692.5,47.5 692.5,48.5 692.5,49.5C 695.438,49.9767 698.104,50.9767 700.5,52.5C 698.712,52.7852 697.045,52.4519 695.5,51.5C 687.991,47.2793 680.325,43.6126 672.5,40.5C 669.833,39.1667 667.167,37.8333 664.5,36.5 Z"/></g>
<g><path style="opacity:0.925" fill="#98d9cd" d="M 295.5,45.5 C 293.784,46.9708 291.784,47.9708 289.5,48.5C 290.687,46.0246 292.687,45.0246 295.5,45.5 Z"/></g>
<g><path style="opacity:0.212" fill="#ebf7f5" d="M 700.5,53.5 C 702.483,53.1568 703.817,53.8235 704.5,55.5C 703.005,55.0113 701.671,54.3446 700.5,53.5 Z"/></g>
<g><path style="opacity:0.206" fill="#eef9f7" d="M 704.5,55.5 C 706.483,55.1568 707.817,55.8235 708.5,57.5C 706.847,57.3404 705.514,56.6737 704.5,55.5 Z"/></g>
<g><path style="opacity:0.058" fill="#f3faf9" d="M 284.5,49.5 C 273.155,54.6761 262.155,60.6761 251.5,67.5C 248.676,68.9447 245.676,70.1114 242.5,71C 240.808,72.3073 239.475,73.8073 238.5,75.5C 234.25,77.2302 230.084,79.2302 226,81.5C 213.701,89.6315 201.534,97.9648 189.5,106.5C 189.976,104.007 191.31,102.007 193.5,100.5C 220.113,81.846 248.113,65.1793 277.5,50.5C 279.743,49.5258 282.076,49.1924 284.5,49.5 Z"/></g>
<g><path style="opacity:0.123" fill="#ecf8f5" d="M 708.5,57.5 C 715.167,60.1667 721.833,62.8333 728.5,65.5C 728.5,66.5 728.5,67.5 728.5,68.5C 721.337,65.5718 714.671,61.9051 708.5,57.5 Z"/></g>
<g><path style="opacity:0.175" fill="#f4fbfa" d="M 728.5,68.5 C 732.5,69.8333 736.5,71.1667 740.5,72.5C 740.5,73.5 740.5,74.5 740.5,75.5C 735.976,73.9565 731.976,71.6232 728.5,68.5 Z"/></g>
<g><path style="opacity:0.929" fill="#91d6c9" d="M 251.5,67.5 C 251.047,68.4584 250.381,69.2917 249.5,70C 245.221,70.8195 241.554,72.6529 238.5,75.5C 239.475,73.8073 240.808,72.3073 242.5,71C 245.676,70.1114 248.676,68.9447 251.5,67.5 Z"/></g>
<g><path style="opacity:0.253" fill="#f5fbfa" d="M 741.5,76.5 C 743.179,76.2852 744.179,76.9519 744.5,78.5C 743.29,78.0679 742.29,77.4013 741.5,76.5 Z"/></g>
<g><path style="opacity:0.113" fill="#f8fcfb" d="M 744.5,78.5 C 748.5,79.8333 752.5,81.1667 756.5,82.5C 756.5,83.8333 756.5,85.1667 756.5,86.5C 752.148,84.3265 748.148,81.6599 744.5,78.5 Z"/></g>
<g><path style="opacity:0.269" fill="#f4fbf9" d="M 757.5,87.5 C 759.179,87.2852 760.179,87.9519 760.5,89.5C 759.29,89.0679 758.29,88.4013 757.5,87.5 Z"/></g>
<g><path style="opacity:0.162" fill="#f5fbfa" d="M 760.5,89.5 C 763.167,90.1667 765.833,90.8333 768.5,91.5C 768.5,92.8333 768.5,94.1667 768.5,95.5C 765.527,93.8532 762.86,91.8532 760.5,89.5 Z"/></g>
<g><path style="opacity:0.212" fill="#f7fbfb" d="M 768.5,95.5 C 769.833,95.5 771.167,95.5 772.5,95.5C 772.5,96.5 772.5,97.5 772.5,98.5C 771.128,97.4884 769.795,96.4884 768.5,95.5 Z"/></g>
<g><path style="opacity:0.839" fill="#bfe7df" d="M 773.5,99.5 C 775.179,99.2852 776.179,99.9519 776.5,101.5C 774.821,101.715 773.821,101.048 773.5,99.5 Z"/></g>
<g><path style="opacity:0.224" fill="#f3faf9" d="M 776.5,101.5 C 777.833,101.5 779.167,101.5 780.5,101.5C 780.5,102.5 780.5,103.5 780.5,104.5C 778.77,103.974 777.436,102.974 776.5,101.5 Z"/></g>
<g><path style="opacity:0.176" fill="#ecf7f5" d="M 782.5,106.5 C 785.599,108.382 788.932,109.715 792.5,110.5C 792.5,111.833 792.5,113.167 792.5,114.5C 788.823,112.145 785.489,109.478 782.5,106.5 Z"/></g>
<g><path style="opacity:0.855" fill="#9adace" d="M 184.5,111.5 C 183.135,113.86 181.135,115.527 178.5,116.5C 179.891,114.11 181.891,112.443 184.5,111.5 Z"/></g>
<g><path style="opacity:0.14" fill="#f7fcfb" d="M 792.5,114.5 C 795.167,115.167 797.833,115.833 800.5,116.5C 800.5,117.833 800.5,119.167 800.5,120.5C 801.833,120.5 803.167,120.5 804.5,120.5C 804.5,121.833 804.5,123.167 804.5,124.5C 800.183,121.514 796.183,118.18 792.5,114.5 Z"/></g>
<g><path style="opacity:0.378" fill="#f8fcfb" d="M 717.5,203.5 C 718.585,205.587 720.251,206.92 722.5,207.5C 734.134,218.301 745.3,229.634 756,241.5C 760.752,247.351 765.252,253.351 769.5,259.5C 764.866,257.533 761.533,254.199 759.5,249.5C 750.13,239.798 741.13,229.798 732.5,219.5C 729.531,216.679 726.198,214.346 722.5,212.5C 712.155,201.776 700.488,192.943 687.5,186C 684.596,181.928 680.929,178.761 676.5,176.5C 669.172,172.002 661.505,168.335 653.5,165.5C 653.5,164.5 653.5,163.5 653.5,162.5C 632.468,153.481 611.134,145.315 589.5,138C 570.357,132.77 551.024,129.104 531.5,127C 530.672,126.085 529.672,125.419 528.5,125C 513.51,123.071 498.343,122.238 483,122.5C 466.157,123.104 449.324,123.771 432.5,124.5C 432.5,125.5 432.5,126.5 432.5,127.5C 408.995,128.86 386.329,133.86 364.5,142.5C 361.914,143.48 359.247,143.813 356.5,143.5C 356.5,144.5 356.5,145.5 356.5,146.5C 350.731,149.044 344.731,151.044 338.5,152.5C 331.361,156.405 324.028,159.738 316.5,162.5C 316.5,163.5 316.5,164.5 316.5,165.5C 309.833,168.167 303.167,170.833 296.5,173.5C 296.5,174.833 296.5,176.167 296.5,177.5C 292.5,178.833 288.5,180.167 284.5,181.5C 284.5,182.5 284.5,183.5 284.5,184.5C 281.833,185.167 279.167,185.833 276.5,186.5C 276.5,187.833 276.5,189.167 276.5,190.5C 273.833,191.167 271.167,191.833 268.5,192.5C 268.5,193.833 268.5,195.167 268.5,196.5C 267.167,196.5 265.833,196.5 264.5,196.5C 264.5,197.833 264.5,199.167 264.5,200.5C 263.167,200.5 261.833,200.5 260.5,200.5C 260.5,201.5 260.5,202.5 260.5,203.5C 259.167,203.5 257.833,203.5 256.5,203.5C 256.5,204.833 256.5,206.167 256.5,207.5C 255.167,207.5 253.833,207.5 252.5,207.5C 252.5,208.833 252.5,210.167 252.5,211.5C 248.5,212.833 244.5,214.167 240.5,215.5C 298.58,160.829 367.58,129.329 447.5,121C 548.631,113.594 638.631,141.094 717.5,203.5 Z"/></g>
<g><path style="opacity:0.246" fill="#f6fbfa" d="M 805.5,125.5 C 806.5,125.5 807.5,125.5 808.5,125.5C 808.5,126.5 808.5,127.5 808.5,128.5C 807.167,127.833 806.167,126.833 805.5,125.5 Z"/></g>
<g><path style="opacity:0.308" fill="#eaf7f4" d="M 809.5,129.5 C 810.5,129.5 811.5,129.5 812.5,129.5C 812.5,130.5 812.5,131.5 812.5,132.5C 811.167,131.833 810.167,130.833 809.5,129.5 Z"/></g>
<g><path style="opacity:0.855" fill="#b7e4db" d="M 813.5,133.5 C 815.179,133.285 816.179,133.952 816.5,135.5C 816.833,136.167 817.167,136.833 817.5,137.5C 815.5,136.833 814.167,135.5 813.5,133.5 Z"/></g>
<g><path style="opacity:0.22" fill="#fdfefe" d="M 816.5,135.5 C 817.833,135.5 819.167,135.5 820.5,135.5C 820.5,136.833 820.5,138.167 820.5,139.5C 819.5,138.833 818.5,138.167 817.5,137.5C 817.167,136.833 816.833,136.167 816.5,135.5 Z"/></g>
<g><path style="opacity:0.194" fill="#fdfefe" d="M 820.5,139.5 C 821.833,139.5 823.167,139.5 824.5,139.5C 824.5,140.5 824.5,141.5 824.5,142.5C 825.833,142.5 827.167,142.5 828.5,142.5C 828.5,143.833 828.5,145.167 828.5,146.5C 829.833,146.5 831.167,146.5 832.5,146.5C 832.5,148.167 832.5,149.833 832.5,151.5C 828.167,147.833 824.167,143.833 820.5,139.5 Z"/></g>
<g><path style="opacity:0.918" fill="#90d6c9" d="M 161.5,130.5 C 155.185,137.813 148.185,144.48 140.5,150.5C 146.842,143.159 153.842,136.492 161.5,130.5 Z"/></g>
<g><path style="opacity:0.297" fill="#fefefe" d="M 833.5,152.5 C 834.5,152.5 835.5,152.5 836.5,152.5C 836.5,153.5 836.5,154.5 836.5,155.5C 835.167,154.833 834.167,153.833 833.5,152.5 Z"/></g>
<g><path style="opacity:0.263" fill="#f2faf9" d="M 836.5,156.5 C 837.833,156.5 839.167,156.5 840.5,156.5C 840.5,157.833 840.5,159.167 840.5,160.5C 838.833,159.5 837.5,158.167 836.5,156.5 Z"/></g>
<g><path style="opacity:0.851" fill="#98d9cd" d="M 134.5,156.5 C 132.576,160.76 129.576,164.093 125.5,166.5C 127.766,162.564 130.766,159.231 134.5,156.5 Z"/></g>
<g><path style="opacity:0.269" fill="#fcfefd" d="M 840.5,160.5 C 841.833,160.5 843.167,160.5 844.5,160.5C 844.5,161.833 844.5,163.167 844.5,164.5C 842.833,163.5 841.5,162.167 840.5,160.5 Z"/></g>
<g><path style="opacity:0.273" fill="#f6fbfb" d="M 845.5,165.5 C 846.5,165.5 847.5,165.5 848.5,165.5C 848.5,166.833 848.5,168.167 848.5,169.5C 846.738,168.738 845.738,167.404 845.5,165.5 Z"/></g>
<g><path style="opacity:0.961" fill="#89d3c5" d="M 125.5,166.5 C 124.267,170.07 121.934,172.737 118.5,174.5C 120.094,171.236 122.427,168.569 125.5,166.5 Z"/></g>
<g><path style="opacity:0.237" fill="#f8fcfb" d="M 848.5,169.5 C 849.833,169.5 851.167,169.5 852.5,169.5C 852.5,171.167 852.5,172.833 852.5,174.5C 850.937,173.055 849.604,171.389 848.5,169.5 Z"/></g>
<g><path style="opacity:0.278" fill="#f5fbfa" d="M 853.5,175.5 C 854.5,175.5 855.5,175.5 856.5,175.5C 856.5,176.833 856.5,178.167 856.5,179.5C 855.026,178.564 854.026,177.23 853.5,175.5 Z"/></g>
<g><path style="opacity:0.242" fill="#f2faf9" d="M 858.5,181.5 C 860.048,181.821 860.715,182.821 860.5,184.5C 859.094,184.027 858.427,183.027 858.5,181.5 Z"/></g>
<g><path style="opacity:0.191" fill="#fbfdfd" d="M 860.5,184.5 C 861.833,184.5 863.167,184.5 864.5,184.5C 864.5,186.167 864.5,187.833 864.5,189.5C 862.937,188.055 861.604,186.389 860.5,184.5 Z"/></g>
<g><path style="opacity:0.808" fill="#a6ddd3" d="M 108.5,185.5 C 107.478,188.868 105.478,191.535 102.5,193.5C 104.016,190.467 106.016,187.8 108.5,185.5 Z"/></g>
<g><path style="opacity:0.242" fill="#f8fcfb" d="M 865.5,190.5 C 866.5,190.5 867.5,190.5 868.5,190.5C 868.5,191.833 868.5,193.167 868.5,194.5C 866.738,193.738 865.738,192.404 865.5,190.5 Z"/></g>
<g><path style="opacity:0.847" fill="#9ad9ce" d="M 102.5,193.5 C 101.864,195.795 100.531,197.461 98.5,198.5C 99.1237,196.246 100.457,194.579 102.5,193.5 Z"/></g>
<g><path style="opacity:0.237" fill="#f8fcfc" d="M 868.5,194.5 C 869.833,194.5 871.167,194.5 872.5,194.5C 872.5,196.5 872.5,198.5 872.5,200.5C 870.782,198.777 869.449,196.777 868.5,194.5 Z"/></g>
<g><path style="opacity:0.254" fill="#f5fbfa" d="M 872.5,200.5 C 873.833,200.5 875.167,200.5 876.5,200.5C 876.5,202.5 876.5,204.5 876.5,206.5C 874.808,204.795 873.475,202.795 872.5,200.5 Z"/></g>
<g><path style="opacity:0.816" fill="#9fdbd0" d="M 717.5,203.5 C 719.749,204.08 721.415,205.413 722.5,207.5C 720.251,206.92 718.585,205.587 717.5,203.5 Z"/></g>
<g><path style="opacity:0.273" fill="#f8fcfb" d="M 877.5,207.5 C 878.5,207.5 879.5,207.5 880.5,207.5C 880.5,208.833 880.5,210.167 880.5,211.5C 879.026,210.564 878.026,209.23 877.5,207.5 Z"/></g>
<g><path style="opacity:0.245" fill="#f4fbf9" d="M 881.5,213.5 C 882.5,213.5 883.5,213.5 884.5,213.5C 884.5,215.167 884.5,216.833 884.5,218.5C 883.263,217.035 882.263,215.368 881.5,213.5 Z"/></g>
<g><path style="opacity:0.965" fill="#8cd4c7" d="M 89.5,210.5 C 89.7852,212.288 89.4519,213.955 88.5,215.5C 86.5073,218.615 84.174,221.282 81.5,223.5C 83.8886,218.921 86.5553,214.588 89.5,210.5 Z"/></g>
<g><path style="opacity:0.693" fill="#f4fbf9" d="M 240.5,215.5 C 240.5,216.833 240.5,218.167 240.5,219.5C 239.167,219.5 237.833,219.5 236.5,219.5C 237.5,217.833 238.833,216.5 240.5,215.5 Z"/></g>
<g><path style="opacity:0.334" fill="#f2faf8" d="M 885.5,219.5 C 886.5,219.5 887.5,219.5 888.5,219.5C 888.5,221.167 888.5,222.833 888.5,224.5C 887.11,223.101 886.11,221.434 885.5,219.5 Z"/></g>
<g><path style="opacity:0.562" fill="#f7fcfb" d="M 236.5,219.5 C 236.5,221.167 236.5,222.833 236.5,224.5C 235.167,224.5 233.833,224.5 232.5,224.5C 232.5,225.833 232.5,227.167 232.5,228.5C 231.167,228.5 229.833,228.5 228.5,228.5C 228.5,229.833 228.5,231.167 228.5,232.5C 227.167,232.5 225.833,232.5 224.5,232.5C 224.5,233.833 224.5,235.167 224.5,236.5C 223.167,236.5 221.833,236.5 220.5,236.5C 225.129,230.203 230.462,224.537 236.5,219.5 Z"/></g>
<g><path style="opacity:0.33" fill="#f0f9f8" d="M 889.5,226.5 C 890.5,226.5 891.5,226.5 892.5,226.5C 892.5,227.833 892.5,229.167 892.5,230.5C 891.026,229.564 890.026,228.23 889.5,226.5 Z"/></g>
<g><path style="opacity:0.329" fill="#f6fbfa" d="M 893.5,232.5 C 894.5,232.5 895.5,232.5 896.5,232.5C 896.5,234.167 896.5,235.833 896.5,237.5C 895.263,236.035 894.263,234.368 893.5,232.5 Z"/></g>
<g><path style="opacity:0.428" fill="#f9fdfc" d="M 220.5,236.5 C 220.5,238.833 220.5,241.167 220.5,243.5C 219.167,243.5 217.833,243.5 216.5,243.5C 216.5,244.833 216.5,246.167 216.5,247.5C 215.167,247.5 213.833,247.5 212.5,247.5C 212.5,248.833 212.5,250.167 212.5,251.5C 211.167,251.5 209.833,251.5 208.5,251.5C 208.5,253.167 208.5,254.833 208.5,256.5C 207.167,256.5 205.833,256.5 204.5,256.5C 204.5,257.5 204.5,258.5 204.5,259.5C 203.167,259.5 201.833,259.5 200.5,259.5C 206.449,251.217 213.116,243.55 220.5,236.5 Z"/></g>
<g><path style="opacity:0.824" fill="#a3ddd2" d="M 74.5,234.5 C 74.1298,237.267 72.7964,239.267 70.5,240.5C 70.9287,237.853 72.2621,235.853 74.5,234.5 Z"/></g>
<g><path style="opacity:0.445" fill="#f0f9f8" d="M 898.5,241.5 C 900.048,241.821 900.715,242.821 900.5,244.5C 899.599,243.71 898.932,242.71 898.5,241.5 Z"/></g>
<g><path style="opacity:0.214" fill="#f8fcfb" d="M 900.5,244.5 C 901.833,244.5 903.167,244.5 904.5,244.5C 904.5,246.833 904.5,249.167 904.5,251.5C 902.801,249.434 901.468,247.1 900.5,244.5 Z"/></g>
<g><path style="opacity:0.855" fill="#a2dcd2" d="M 70.5,240.5 C 69.7297,243.496 68.3964,246.163 66.5,248.5C 66.8961,245.279 68.2295,242.612 70.5,240.5 Z"/></g>
<g><path style="opacity:0.217" fill="#f9fdfc" d="M 904.5,251.5 C 905.833,251.5 907.167,251.5 908.5,251.5C 908.5,254.167 908.5,256.833 908.5,259.5C 906.659,257.151 905.326,254.485 904.5,251.5 Z"/></g>
<g><path style="opacity:0.313" fill="#f4fbfa" d="M 908.5,260.5 C 909.833,260.5 911.167,260.5 912.5,260.5C 912.5,262.833 912.5,265.167 912.5,267.5C 910.929,265.365 909.596,263.032 908.5,260.5 Z"/></g>
<g><path style="opacity:0.504" fill="#f6fcfb" d="M 200.5,260.5 C 200.5,262.5 200.5,264.5 200.5,266.5C 199.167,266.5 197.833,266.5 196.5,266.5C 196.5,267.833 196.5,269.167 196.5,270.5C 195.5,270.5 194.5,270.5 193.5,270.5C 195.062,266.608 197.395,263.275 200.5,260.5 Z"/></g>
<g><path style="opacity:0.792" fill="#a1dcd1" d="M 771.5,260.5 C 773.531,261.539 774.864,263.205 775.5,265.5C 773.457,264.421 772.124,262.754 771.5,260.5 Z"/></g>
<g><path style="opacity:0.331" fill="#f4fbf9" d="M 769.5,259.5 C 770.167,259.833 770.833,260.167 771.5,260.5C 772.124,262.754 773.457,264.421 775.5,265.5C 780.973,272.632 785.807,280.299 790,288.5C 791.299,289.98 792.966,290.646 795,290.5C 834.155,284.294 873.322,278.294 912.5,272.5C 912.5,273.833 912.5,275.167 912.5,276.5C 907.125,276.172 901.792,276.505 896.5,277.5C 863.023,283.801 829.357,289.135 795.5,293.5C 793.833,293.167 792.167,292.833 790.5,292.5C 784.847,284.822 779.513,276.822 774.5,268.5C 771.072,266.422 769.406,263.422 769.5,259.5 Z"/></g>
<g><path style="opacity:0.53" fill="#f3faf9" d="M 192.5,271.5 C 192.5,273.167 192.5,274.833 192.5,276.5C 191.167,276.5 189.833,276.5 188.5,276.5C 189.604,274.611 190.937,272.945 192.5,271.5 Z"/></g>
<g><path style="opacity:0.474" fill="#f7fcfb" d="M 188.5,277.5 C 188.5,279.5 188.5,281.5 188.5,283.5C 187.167,283.5 185.833,283.5 184.5,283.5C 185.34,281.147 186.674,279.147 188.5,277.5 Z"/></g>
<g><path style="opacity:0.423" fill="#f9fcfc" d="M 184.5,283.5 C 184.5,286.167 184.5,288.833 184.5,291.5C 183.167,291.5 181.833,291.5 180.5,291.5C 180.5,293.5 180.5,295.5 180.5,297.5C 179.167,297.5 177.833,297.5 176.5,297.5C 176.5,299.833 176.5,302.167 176.5,304.5C 175.167,304.5 173.833,304.5 172.5,304.5C 172.5,307.167 172.5,309.833 172.5,312.5C 171.167,312.5 169.833,312.5 168.5,312.5C 168.5,313.833 168.5,315.167 168.5,316.5C 167.5,316.5 166.5,316.5 165.5,316.5C 171.079,305.002 177.412,294.002 184.5,283.5 Z"/></g>
<g><path style="opacity:0.725" fill="#b3e3da" d="M 48.5,285.5 C 47.9088,288.925 46.5755,291.925 44.5,294.5C 44.3433,293.127 44.51,291.793 45,290.5C 45.7365,288.404 46.9032,286.737 48.5,285.5 Z"/></g>
<g><path style="opacity:0.996" fill="#5bc2af" d="M 967.5,306.5 C 967.528,308.582 966.861,310.416 965.5,312C 954.107,318.022 943.107,324.522 932.5,331.5C 930.847,331.66 929.514,332.326 928.5,333.5C 927.005,333.989 925.671,334.655 924.5,335.5C 805.905,403.303 685.905,468.803 564.5,532C 547.402,540.216 530.069,547.883 512.5,555C 495.965,559.93 479.631,559.263 463.5,553C 446.183,546.019 431.849,535.186 420.5,520.5C 415.922,512.751 411.922,504.751 408.5,496.5C 407.851,490.823 407.018,485.157 406,479.5C 405.722,478.584 405.222,477.918 404.5,477.5C 403.757,463.902 404.757,450.568 407.5,437.5C 410.437,430.2 413.437,422.866 416.5,415.5C 418.016,413.609 419.35,411.609 420.5,409.5C 421.82,408.058 423.486,407.392 425.5,407.5C 425.366,405.708 425.699,404.042 426.5,402.5C 429.464,397.869 433.131,393.869 437.5,390.5C 440.337,390.316 442.337,388.982 443.5,386.5C 443.842,385.662 444.508,385.328 445.5,385.5C 449.363,384.702 452.363,382.702 454.5,379.5C 458.167,378.167 461.833,376.833 465.5,375.5C 471.537,373.825 477.537,372.159 483.5,370.5C 484.167,370.5 484.833,370.5 485.5,370.5C 492.119,369.743 498.785,369.243 505.5,369C 506.056,368.617 506.389,368.117 506.5,367.5C 515.613,367.626 524.613,366.96 533.5,365.5C 544.652,364.554 555.652,362.887 566.5,360.5C 566.833,360.5 567.167,360.5 567.5,360.5C 573.145,359.873 578.811,359.373 584.5,359C 585.942,358.623 586.942,357.79 587.5,356.5C 596.516,356.996 605.183,355.996 613.5,353.5C 614.833,353.167 616.167,352.833 617.5,352.5C 621.846,352.666 626.179,352.499 630.5,352C 634.381,350.81 638.381,350.143 642.5,350C 643.056,349.617 643.389,349.117 643.5,348.5C 643.833,348.5 644.167,348.5 644.5,348.5C 650.509,348.666 656.509,348.499 662.5,348C 663.416,347.722 664.082,347.222 664.5,346.5C 683.363,343.752 702.363,341.585 721.5,340C 722.381,339.292 723.047,338.458 723.5,337.5C 727.367,337.758 731.034,337.092 734.5,335.5C 742.659,335.847 750.659,335.014 758.5,333C 759.056,332.617 759.389,332.117 759.5,331.5C 765.358,331.822 771.025,331.489 776.5,330.5C 790.266,328.967 803.933,326.8 817.5,324C 828.5,323 839.5,322 850.5,321C 851.381,320.292 852.047,319.458 852.5,318.5C 860.704,318.398 868.704,317.065 876.5,314.5C 885.457,314.704 894.124,313.704 902.5,311.5C 902.833,311.5 903.167,311.5 903.5,311.5C 908.969,310.925 914.302,310.259 919.5,309.5C 932.511,307.425 945.678,305.759 959,304.5C 962.148,304.278 964.981,304.945 967.5,306.5 Z"/></g>
<g><path style="opacity:0.984" fill="#82d0c2" d="M 41.5,301.5 C 40.6539,307.945 39.3206,314.278 37.5,320.5C 36.5,320.5 35.5,320.5 34.5,320.5C 36.9929,314.174 39.3262,307.84 41.5,301.5 Z"/></g>
<g><path style="opacity:0.524" fill="#f7fcfb" d="M 164.5,318.5 C 164.5,320.833 164.5,323.167 164.5,325.5C 163.5,325.5 162.5,325.5 161.5,325.5C 162.264,322.982 163.264,320.649 164.5,318.5 Z"/></g>
<g><path style="opacity:0.083" fill="#f3faf9" d="M 968.5,301.5 C 968.5,305.833 968.5,310.167 968.5,314.5C 965.833,315.167 963.167,315.833 960.5,316.5C 960.5,317.5 960.5,318.5 960.5,319.5C 957.833,320.167 955.167,320.833 952.5,321.5C 952.5,322.5 952.5,323.5 952.5,324.5C 951.167,324.5 949.833,324.5 948.5,324.5C 948.5,325.5 948.5,326.5 948.5,327.5C 943.358,329.452 938.025,330.785 932.5,331.5C 943.107,324.522 954.107,318.022 965.5,312C 966.861,310.416 967.528,308.582 967.5,306.5C 967.586,305.504 967.252,304.671 966.5,304C 960.5,303.333 954.5,303.333 948.5,304C 939.411,305.276 930.411,306.61 921.5,308C 920.584,308.278 919.918,308.778 919.5,309.5C 914.489,309.334 909.489,309.501 904.5,310C 903.944,310.383 903.611,310.883 903.5,311.5C 903.167,311.5 902.833,311.5 902.5,311.5C 893.665,312.139 884.998,313.139 876.5,314.5C 868.704,317.065 860.704,318.398 852.5,318.5C 840.571,320.328 828.571,321.828 816.5,323C 802.97,325.189 789.637,327.689 776.5,330.5C 771.025,331.489 765.358,331.822 759.5,331.5C 751.123,333.312 742.79,334.646 734.5,335.5C 731.034,337.092 727.367,337.758 723.5,337.5C 703.606,339.783 683.939,342.783 664.5,346.5C 657.676,347.005 651.009,347.671 644.5,348.5C 644.167,348.5 643.833,348.5 643.5,348.5C 634.608,349.329 625.942,350.662 617.5,352.5C 616.167,352.833 614.833,353.167 613.5,353.5C 604.74,354.504 596.073,355.504 587.5,356.5C 581.604,357.901 575.604,358.734 569.5,359C 568.584,359.278 567.918,359.778 567.5,360.5C 567.167,360.5 566.833,360.5 566.5,360.5C 555.499,361.713 544.499,363.046 533.5,364.5C 524.362,365.35 515.362,366.35 506.5,367.5C 499.108,367.677 492.108,368.677 485.5,370.5C 484.833,370.5 484.167,370.5 483.5,370.5C 478.082,370.722 472.748,371.555 467.5,373C 466.619,373.708 465.953,374.542 465.5,375.5C 461.833,376.833 458.167,378.167 454.5,379.5C 450.909,380.783 447.909,382.783 445.5,385.5C 444.508,385.328 443.842,385.662 443.5,386.5C 441.205,387.475 439.205,388.808 437.5,390.5C 433.131,393.869 429.464,397.869 426.5,402.5C 423.81,404.193 421.81,406.527 420.5,409.5C 419.35,411.609 418.016,413.609 416.5,415.5C 411.686,422.017 408.686,429.35 407.5,437.5C 406.883,437.611 406.383,437.944 406,438.5C 403.502,451.575 403.002,464.575 404.5,477.5C 404.678,484.272 406.012,490.605 408.5,496.5C 411.922,504.751 415.922,512.751 420.5,520.5C 420.167,520.5 419.833,520.5 419.5,520.5C 415.24,516.706 411.907,512.04 409.5,506.5C 396.577,474.19 398.41,442.857 415,412.5C 420.241,406.348 425.241,400.015 430,393.5C 434.489,390.616 438.655,387.282 442.5,383.5C 447.876,380.307 453.543,377.974 459.5,376.5C 459.5,375.5 459.5,374.5 459.5,373.5C 466.949,371.006 474.615,369.173 482.5,368C 514.235,364.758 545.902,360.924 577.5,356.5C 621.757,349.717 666.091,343.384 710.5,337.5C 711.025,336.808 711.692,336.308 712.5,336C 756.072,330.261 799.739,324.428 843.5,318.5C 844.025,317.808 844.692,317.308 845.5,317C 883.645,312.102 921.812,306.602 960,300.5C 962.848,300.798 965.681,301.131 968.5,301.5 Z"/></g>
<g><path style="opacity:0.918" fill="#96d8cc" d="M 852.5,318.5 C 852.047,319.458 851.381,320.292 850.5,321C 839.5,322 828.5,323 817.5,324C 803.933,326.8 790.266,328.967 776.5,330.5C 789.637,327.689 802.97,325.189 816.5,323C 828.571,321.828 840.571,320.328 852.5,318.5 Z"/></g>
<g><path style="opacity:0.604" fill="#c7eae4" d="M 902.5,311.5 C 894.124,313.704 885.457,314.704 876.5,314.5C 884.998,313.139 893.665,312.139 902.5,311.5 Z"/></g>
<g><path style="opacity:0.655" fill="#bbe6de" d="M 919.5,309.5 C 914.302,310.259 908.969,310.925 903.5,311.5C 903.611,310.883 903.944,310.383 904.5,310C 909.489,309.501 914.489,309.334 919.5,309.5 Z"/></g>
<g><path style="opacity:0.775" fill="#9ddacf" d="M 967.5,306.5 C 964.981,304.945 962.148,304.278 959,304.5C 945.678,305.759 932.511,307.425 919.5,309.5C 919.918,308.778 920.584,308.278 921.5,308C 930.411,306.61 939.411,305.276 948.5,304C 954.5,303.333 960.5,303.333 966.5,304C 967.252,304.671 967.586,305.504 967.5,306.5 Z"/></g>
<g><path style="opacity:0.468" fill="#f5fbfa" d="M 160.5,327.5 C 160.5,330.167 160.5,332.833 160.5,335.5C 159.167,335.5 157.833,335.5 156.5,335.5C 157.323,332.52 158.657,329.853 160.5,327.5 Z"/></g>
<g><path style="opacity:0.553" fill="#f2faf8" d="M 932.5,331.5 C 931.817,333.176 930.483,333.843 928.5,333.5C 929.514,332.326 930.847,331.66 932.5,331.5 Z"/></g>
<g><path style="opacity:0.796" fill="#b8e4dc" d="M 759.5,331.5 C 759.389,332.117 759.056,332.617 758.5,333C 750.659,335.014 742.659,335.847 734.5,335.5C 742.79,334.646 751.123,333.312 759.5,331.5 Z"/></g>
<g><path style="opacity:0.443" fill="#f2faf8" d="M 928.5,333.5 C 927.817,335.176 926.483,335.843 924.5,335.5C 925.671,334.655 927.005,333.989 928.5,333.5 Z"/></g>
<g><path style="opacity:0.496" fill="#f5fbfa" d="M 156.5,336.5 C 156.5,339.167 156.5,341.833 156.5,344.5C 155.5,344.5 154.5,344.5 153.5,344.5C 153.733,341.458 154.733,338.792 156.5,336.5 Z"/></g>
<g><path style="opacity:0.941" fill="#81d0c1" d="M 723.5,337.5 C 723.047,338.458 722.381,339.292 721.5,340C 702.363,341.585 683.363,343.752 664.5,346.5C 683.939,342.783 703.606,339.783 723.5,337.5 Z"/></g>
<g><path style="opacity:0.521" fill="#f3faf9" d="M 152.5,345.5 C 152.5,349.167 152.5,352.833 152.5,356.5C 151.167,356.5 149.833,356.5 148.5,356.5C 149.462,352.605 150.796,348.939 152.5,345.5 Z"/></g>
<g><path style="opacity:0.914" fill="#8fd5c8" d="M 664.5,346.5 C 664.082,347.222 663.416,347.722 662.5,348C 656.509,348.499 650.509,348.666 644.5,348.5C 651.009,347.671 657.676,347.005 664.5,346.5 Z"/></g>
<g><path style="opacity:0.648" fill="#b8e4dc" d="M 643.5,348.5 C 643.389,349.117 643.056,349.617 642.5,350C 638.381,350.143 634.381,350.81 630.5,352C 626.179,352.499 621.846,352.666 617.5,352.5C 625.942,350.662 634.608,349.329 643.5,348.5 Z"/></g>
<g><path style="opacity:0.686" fill="#b0e2d8" d="M 29.5,338.5 C 29.2508,344.274 27.9174,349.607 25.5,354.5C 26.8733,349.688 27.7066,344.688 28,339.5C 28.3826,338.944 28.8826,338.611 29.5,338.5 Z"/></g>
<g><path style="opacity:0.682" fill="#c5e9e2" d="M 613.5,353.5 C 605.183,355.996 596.516,356.996 587.5,356.5C 596.073,355.504 604.74,354.504 613.5,353.5 Z"/></g>
<g><path style="opacity:0.478" fill="#f5fbfa" d="M 148.5,357.5 C 148.5,361.5 148.5,365.5 148.5,369.5C 147.167,369.5 145.833,369.5 144.5,369.5C 145.232,365.213 146.565,361.213 148.5,357.5 Z"/></g>
<g><path style="opacity:0.965" fill="#84d1c3" d="M 587.5,356.5 C 586.942,357.79 585.942,358.623 584.5,359C 578.811,359.373 573.145,359.873 567.5,360.5C 567.918,359.778 568.584,359.278 569.5,359C 575.604,358.734 581.604,357.901 587.5,356.5 Z"/></g>
<g><path style="opacity:0.935" fill="#88d3c5" d="M 566.5,360.5 C 555.652,362.887 544.652,364.554 533.5,365.5C 533.5,365.167 533.5,364.833 533.5,364.5C 544.499,363.046 555.499,361.713 566.5,360.5 Z"/></g>
<g><path style="opacity:0.816" fill="#a7ded4" d="M 533.5,364.5 C 533.5,364.833 533.5,365.167 533.5,365.5C 524.613,366.96 515.613,367.626 506.5,367.5C 515.362,366.35 524.362,365.35 533.5,364.5 Z"/></g>
<g><path style="opacity:0.646" fill="#b7e4dc" d="M 506.5,367.5 C 506.389,368.117 506.056,368.617 505.5,369C 498.785,369.243 492.119,369.743 485.5,370.5C 492.108,368.677 499.108,367.677 506.5,367.5 Z"/></g>
<g><path style="opacity:0.996" fill="#5bc2af" d="M 946.5,368.5 C 947.024,370.306 947.691,371.972 948.5,373.5C 948.216,375.415 948.549,377.081 949.5,378.5C 950.222,385.337 951.222,392.004 952.5,398.5C 952.19,401.713 952.523,404.713 953.5,407.5C 954.658,417.623 955.658,427.623 956.5,437.5C 956.5,455.167 956.5,472.833 956.5,490.5C 955.602,502.703 954.602,515.037 953.5,527.5C 952.527,529.948 952.194,532.615 952.5,535.5C 950.738,543.639 949.404,551.973 948.5,560.5C 948.5,560.833 948.5,561.167 948.5,561.5C 944.533,578.712 940.533,596.045 936.5,613.5C 934.926,616.907 933.926,620.573 933.5,624.5C 932.596,625.209 932.263,626.209 932.5,627.5C 930.997,631.341 929.664,635.341 928.5,639.5C 928.5,639.833 928.5,640.167 928.5,640.5C 926.595,644.215 925.262,648.215 924.5,652.5C 924.5,652.833 924.5,653.167 924.5,653.5C 922.792,656.95 921.459,660.617 920.5,664.5C 919.519,666.396 918.519,668.396 917.5,670.5C 916.277,671.614 914.944,671.781 913.5,671C 880.643,652.408 847.976,633.574 815.5,614.5C 815.337,612.143 815.503,609.81 816,607.5C 818.183,603.114 819.683,598.447 820.5,593.5C 822.586,589.07 824.253,584.404 825.5,579.5C 825.5,578.5 825.5,577.5 825.5,576.5C 826.117,576.389 826.617,576.056 827,575.5C 828.049,571.867 828.882,568.201 829.5,564.5C 829.5,563.833 829.5,563.167 829.5,562.5C 830.371,559.997 831.037,557.33 831.5,554.5C 831.205,552.265 831.539,550.265 832.5,548.5C 833.117,548.389 833.617,548.056 834,547.5C 834.16,543.713 834.826,540.046 836,536.5C 836.499,532.514 836.666,528.514 836.5,524.5C 836.833,522.5 837.167,520.5 837.5,518.5C 838.093,512.906 838.926,507.239 840,501.5C 840.5,495.175 840.666,488.842 840.5,482.5C 841.117,482.389 841.617,482.056 842,481.5C 842.667,474.167 842.667,466.833 842,459.5C 841.617,458.944 841.117,458.611 840.5,458.5C 840.666,450.826 840.5,443.159 840,435.5C 839.768,434.263 839.268,433.263 838.5,432.5C 838.5,432.167 838.5,431.833 838.5,431.5C 838.5,425.5 838.5,419.5 838.5,413.5C 842.117,412.013 845.784,410.68 849.5,409.5C 851.544,408.492 853.544,407.492 855.5,406.5C 857.801,405.94 860.134,405.44 862.5,405C 863.056,404.617 863.389,404.117 863.5,403.5C 870.978,399.335 878.644,395.668 886.5,392.5C 889.578,392.38 892.245,391.38 894.5,389.5C 894.5,389.167 894.5,388.833 894.5,388.5C 898.077,388.855 901.077,387.855 903.5,385.5C 910.402,382.775 917.402,380.275 924.5,378C 925.252,377.329 925.586,376.496 925.5,375.5C 926.605,374.4 927.938,373.733 929.5,373.5C 932.806,373.181 935.473,371.847 937.5,369.5C 940.518,369.296 943.518,368.963 946.5,368.5 Z"/></g>
<g><path style="opacity:0.463" fill="#f2faf8" d="M 144.5,369.5 C 144.5,373.833 144.5,378.167 144.5,382.5C 143.167,382.5 141.833,382.5 140.5,382.5C 141.057,377.835 142.39,373.502 144.5,369.5 Z"/></g>
<g><path style="opacity:0.792" fill="#aee1d8" d="M 483.5,370.5 C 477.537,372.159 471.537,373.825 465.5,375.5C 465.953,374.542 466.619,373.708 467.5,373C 472.748,371.555 478.082,370.722 483.5,370.5 Z"/></g>
<g><path style="opacity:0.291" fill="#fafdfc" d="M 949.5,378.5 C 950.5,378.5 951.5,378.5 952.5,378.5C 952.5,385.167 952.5,391.833 952.5,398.5C 951.222,392.004 950.222,385.337 949.5,378.5 Z"/></g>
<g><path style="opacity:0.933" fill="#90d6c9" d="M 454.5,379.5 C 452.363,382.702 449.363,384.702 445.5,385.5C 447.909,382.783 450.909,380.783 454.5,379.5 Z"/></g>
<g><path style="opacity:0.953" fill="#84d1c3" d="M 925.5,375.5 C 925.586,376.496 925.252,377.329 924.5,378C 917.402,380.275 910.402,382.775 903.5,385.5C 910.327,381.31 917.66,377.977 925.5,375.5 Z"/></g>
<g><path style="opacity:0.43" fill="#f6fbfa" d="M 140.5,384.5 C 140.5,389.5 140.5,394.5 140.5,399.5C 139.167,399.5 137.833,399.5 136.5,399.5C 137.309,394.255 138.642,389.255 140.5,384.5 Z"/></g>
<g><path style="opacity:0.729" fill="#ace0d6" d="M 903.5,385.5 C 901.077,387.855 898.077,388.855 894.5,388.5C 897.294,387.079 900.294,386.079 903.5,385.5 Z"/></g>
<g><path style="opacity:0.827" fill="#9fdcd0" d="M 443.5,386.5 C 442.337,388.982 440.337,390.316 437.5,390.5C 439.205,388.808 441.205,387.475 443.5,386.5 Z"/></g>
<g><path style="opacity:0.9" fill="#91d6ca" d="M 21.5,375.5 C 20.8905,380.812 20.3905,386.146 20,391.5C 19.7599,393.852 18.9265,395.852 17.5,397.5C 18.6577,390.885 19.491,384.218 20,377.5C 20.2784,376.584 20.7784,375.918 21.5,375.5 Z"/></g>
<g><path style="opacity:0.792" fill="#afe1d8" d="M 894.5,389.5 C 892.245,391.38 889.578,392.38 886.5,392.5C 888.755,390.62 891.422,389.62 894.5,389.5 Z"/></g>
<g><path style="opacity:0.976" fill="#88d2c4" d="M 426.5,402.5 C 425.699,404.042 425.366,405.708 425.5,407.5C 423.486,407.392 421.82,408.058 420.5,409.5C 421.81,406.527 423.81,404.193 426.5,402.5 Z"/></g>
<g><path style="opacity:0.745" fill="#abe0d6" d="M 863.5,403.5 C 863.389,404.117 863.056,404.617 862.5,405C 860.134,405.44 857.801,405.94 855.5,406.5C 855.611,405.883 855.944,405.383 856.5,405C 858.866,404.56 861.199,404.06 863.5,403.5 Z"/></g>
<g><path style="opacity:0.36" fill="#f6fbfa" d="M 953.5,407.5 C 954.5,407.5 955.5,407.5 956.5,407.5C 956.5,417.5 956.5,427.5 956.5,437.5C 955.658,427.623 954.658,417.623 953.5,407.5 Z"/></g>
<g><path style="opacity:0.859" fill="#9cdacf" d="M 855.5,406.5 C 853.544,407.492 851.544,408.492 849.5,409.5C 850.687,407.025 852.687,406.025 855.5,406.5 Z"/></g>
<g><path style="opacity:0.882" fill="#96d8cc" d="M 17.5,404.5 C 17.6655,408.514 17.4988,412.514 17,416.5C 16.7216,417.416 16.2216,418.082 15.5,418.5C 15.3618,413.586 16.0285,408.919 17.5,404.5 Z"/></g>
<g><path style="opacity:0.614" fill="#b2e2d9" d="M 838.5,413.5 C 838.5,419.5 838.5,425.5 838.5,431.5C 837.689,427.165 837.022,422.665 836.5,418C 836.525,416.124 837.191,414.624 838.5,413.5 Z"/></g>
<g><path style="opacity:0.432" fill="#f8fcfb" d="M 924.5,335.5 C 924.5,337.167 924.5,338.833 924.5,340.5C 917.833,343.167 911.167,345.833 904.5,348.5C 904.5,349.5 904.5,350.5 904.5,351.5C 900.323,351.929 896.323,352.929 892.5,354.5C 892.5,355.5 892.5,356.5 892.5,357.5C 891.167,357.5 889.833,357.5 888.5,357.5C 888.5,358.833 888.5,360.167 888.5,361.5C 877.833,366.167 867.167,370.833 856.5,375.5C 856.5,376.5 856.5,377.5 856.5,378.5C 851.167,380.5 845.833,382.5 840.5,384.5C 840.5,385.833 840.5,387.167 840.5,388.5C 835.644,389.924 830.978,391.924 826.5,394.5C 824.547,395.156 822.547,395.489 820.5,395.5C 820.5,396.833 820.5,398.167 820.5,399.5C 809.833,404.167 799.167,408.833 788.5,413.5C 788.5,414.5 788.5,415.5 788.5,416.5C 780.5,419.833 772.5,423.167 764.5,426.5C 764.5,427.833 764.5,429.167 764.5,430.5C 760.5,431.833 756.5,433.167 752.5,434.5C 752.5,435.5 752.5,436.5 752.5,437.5C 749.833,437.833 747.167,438.167 744.5,438.5C 744.5,439.5 744.5,440.5 744.5,441.5C 736.5,444.833 728.5,448.167 720.5,451.5C 720.5,452.5 720.5,453.5 720.5,454.5C 708.5,459.833 696.5,465.167 684.5,470.5C 684.5,471.5 684.5,472.5 684.5,473.5C 681.833,474.167 679.167,474.833 676.5,475.5C 676.5,476.5 676.5,477.5 676.5,478.5C 666.953,481.606 657.62,485.273 648.5,489.5C 648.5,490.5 648.5,491.5 648.5,492.5C 647.167,492.5 645.833,492.5 644.5,492.5C 644.5,493.833 644.5,495.167 644.5,496.5C 633.415,499.376 622.748,503.376 612.5,508.5C 612.5,509.5 612.5,510.5 612.5,511.5C 599.167,517.5 585.833,523.5 572.5,529.5C 572.5,530.5 572.5,531.5 572.5,532.5C 559.167,537.833 545.833,543.167 532.5,548.5C 532.5,549.5 532.5,550.5 532.5,551.5C 523.416,555.108 514.083,558.108 504.5,560.5C 487.604,561.942 471.27,559.442 455.5,553C 445.795,547.385 436.629,540.885 428,533.5C 425.292,528.983 422.458,524.65 419.5,520.5C 419.833,520.5 420.167,520.5 420.5,520.5C 431.849,535.186 446.183,546.019 463.5,553C 479.631,559.263 495.965,559.93 512.5,555C 530.069,547.883 547.402,540.216 564.5,532C 685.905,468.803 805.905,403.303 924.5,335.5 Z"/></g>
<g><path style="opacity:0.386" fill="#f5fbfa" d="M 136.5,399.5 C 136.5,407.833 136.5,416.167 136.5,424.5C 135.167,424.5 133.833,424.5 132.5,424.5C 132.5,454.5 132.5,484.5 132.5,514.5C 126.362,475.92 127.695,437.587 136.5,399.5 Z"/></g>
<g><path style="opacity:0.796" fill="#a4ddd2" d="M 416.5,415.5 C 413.437,422.866 410.437,430.2 407.5,437.5C 408.686,429.35 411.686,422.017 416.5,415.5 Z"/></g>
<g><path style="opacity:0.847" fill="#99d9cd" d="M 15.5,431.5 C 15.665,434.85 15.4983,438.183 15,441.5C 14.7216,442.416 14.2216,443.082 13.5,443.5C 13.1977,439.21 13.8643,435.21 15.5,431.5 Z"/></g>
<g><path style="opacity:0.9" fill="#82d1c2" d="M 407.5,437.5 C 404.757,450.568 403.757,463.902 404.5,477.5C 403.002,464.575 403.502,451.575 406,438.5C 406.383,437.944 406.883,437.611 407.5,437.5 Z"/></g>
<g><path style="opacity:0.862" fill="#8bd4c6" d="M 840.5,458.5 C 841.117,458.611 841.617,458.944 842,459.5C 842.667,466.833 842.667,474.167 842,481.5C 841.617,482.056 841.117,482.389 840.5,482.5C 840.5,474.5 840.5,466.5 840.5,458.5 Z"/></g>
<g><path style="opacity:0.706" fill="#a9dfd5" d="M 13.5,471.5 C 14.2216,471.918 14.7216,472.584 15,473.5C 15.4988,477.486 15.6655,481.486 15.5,485.5C 14.0285,481.081 13.3618,476.414 13.5,471.5 Z"/></g>
<g><path style="opacity:0.839" fill="#94d7cb" d="M 404.5,477.5 C 405.222,477.918 405.722,478.584 406,479.5C 407.018,485.157 407.851,490.823 408.5,496.5C 406.012,490.605 404.678,484.272 404.5,477.5 Z"/></g>
<g><path style="opacity:0.4" fill="#f3faf9" d="M 956.5,490.5 C 956.5,502.833 956.5,515.167 956.5,527.5C 955.5,527.5 954.5,527.5 953.5,527.5C 954.602,515.037 955.602,502.703 956.5,490.5 Z"/></g>
<g><path style="opacity:0.614" fill="#cbebe5" d="M 838.5,432.5 C 839.268,433.263 839.768,434.263 840,435.5C 840.5,443.159 840.666,450.826 840.5,458.5C 840.5,466.5 840.5,474.5 840.5,482.5C 840.666,488.842 840.5,495.175 840,501.5C 838.926,507.239 838.093,512.906 837.5,518.5C 839.674,489.882 840.007,461.216 838.5,432.5 Z"/></g>
<g><path style="opacity:0.884" fill="#8ad3c6" d="M 15.5,501.5 C 17.1171,502.589 17.9504,504.256 18,506.5C 18.2582,512.215 18.7582,517.882 19.5,523.5C 18.8826,523.389 18.3826,523.056 18,522.5C 17.7504,515.412 16.9171,508.412 15.5,501.5 Z"/></g>
<g><path style="opacity:0.321" fill="#f9fcfc" d="M 132.5,517.5 C 133.833,517.5 135.167,517.5 136.5,517.5C 136.5,524.5 136.5,531.5 136.5,538.5C 134.43,531.766 133.097,524.766 132.5,517.5 Z"/></g>
<g><path style="opacity:0.847" fill="#a2ddd2" d="M 836.5,524.5 C 836.666,528.514 836.499,532.514 836,536.5C 834.826,540.046 834.16,543.713 834,547.5C 833.617,548.056 833.117,548.389 832.5,548.5C 833.682,540.349 835.015,532.349 836.5,524.5 Z"/></g>
<g><path style="opacity:0.423" fill="#f3faf9" d="M 952.5,535.5 C 952.5,543.833 952.5,552.167 952.5,560.5C 951.167,560.5 949.833,560.5 948.5,560.5C 949.404,551.973 950.738,543.639 952.5,535.5 Z"/></g>
<g><path style="opacity:0.325" fill="#f9fcfc" d="M 136.5,540.5 C 137.833,540.5 139.167,540.5 140.5,540.5C 140.5,545.5 140.5,550.5 140.5,555.5C 138.721,550.722 137.387,545.722 136.5,540.5 Z"/></g>
<g><path style="opacity:0.773" fill="#a5ddd3" d="M 19.5,537.5 C 20.5585,538.6 21.3918,539.934 22,541.5C 22.4983,544.817 22.665,548.15 22.5,551.5C 21.6663,546.9 20.6663,542.234 19.5,537.5 Z"/></g>
<g><path style="opacity:0.136" fill="#f3faf9" d="M 189.5,106.5 C 188.027,108.395 186.36,110.061 184.5,111.5C 181.891,112.443 179.891,114.11 178.5,116.5C 172.241,120.461 166.575,125.127 161.5,130.5C 153.842,136.492 146.842,143.159 140.5,150.5C 137.833,151.833 135.833,153.833 134.5,156.5C 130.766,159.231 127.766,162.564 125.5,166.5C 122.427,168.569 120.094,171.236 118.5,174.5C 114.483,177.653 111.149,181.319 108.5,185.5C 106.016,187.8 104.016,190.467 102.5,193.5C 100.457,194.579 99.1237,196.246 98.5,198.5C 95.0142,202.139 92.0142,206.139 89.5,210.5C 86.5553,214.588 83.8886,218.921 81.5,223.5C 78.7883,226.888 76.455,230.555 74.5,234.5C 72.2621,235.853 70.9287,237.853 70.5,240.5C 68.2295,242.612 66.8961,245.279 66.5,248.5C 61.8947,255.855 57.728,263.521 54,271.5C 52.2546,276.243 50.4213,280.909 48.5,285.5C 46.9032,286.737 45.7365,288.404 45,290.5C 44.51,291.793 44.3433,293.127 44.5,294.5C 44.2413,297.272 43.2413,299.605 41.5,301.5C 39.3262,307.84 36.9929,314.174 34.5,320.5C 33.4646,326.772 31.7979,332.772 29.5,338.5C 28.8826,338.611 28.3826,338.944 28,339.5C 27.7066,344.688 26.8733,349.688 25.5,354.5C 24.1531,358.774 22.9865,363.107 22,367.5C 21.5026,370.146 21.3359,372.813 21.5,375.5C 20.7784,375.918 20.2784,376.584 20,377.5C 19.491,384.218 18.6577,390.885 17.5,397.5C 17.5,399.833 17.5,402.167 17.5,404.5C 16.0285,408.919 15.3618,413.586 15.5,418.5C 15.5,422.833 15.5,427.167 15.5,431.5C 13.8643,435.21 13.1977,439.21 13.5,443.5C 13.5,452.833 13.5,462.167 13.5,471.5C 13.3618,476.414 14.0285,481.081 15.5,485.5C 15.5,490.833 15.5,496.167 15.5,501.5C 16.9171,508.412 17.7504,515.412 18,522.5C 18.3826,523.056 18.8826,523.389 19.5,523.5C 19.5,528.167 19.5,532.833 19.5,537.5C 20.6663,542.234 21.6663,546.9 22.5,551.5C 23.0264,555.312 23.6931,558.979 24.5,562.5C 24.8529,569.225 26.1863,575.558 28.5,581.5C 29.0885,584.61 29.7552,587.61 30.5,590.5C 30.9628,593.33 31.6295,595.997 32.5,598.5C 35.3999,608.979 38.3999,619.312 41.5,629.5C 42.0985,634.196 43.4318,638.529 45.5,642.5C 46.1174,642.611 46.6174,642.944 47,643.5C 49.3333,651.167 51.6667,658.833 54,666.5C 54.8764,668.988 56.5431,670.655 59,671.5C 92.7616,654.036 126.595,636.702 160.5,619.5C 160.5,620.5 160.5,621.5 160.5,622.5C 157.833,623.167 155.167,623.833 152.5,624.5C 152.5,625.5 152.5,626.5 152.5,627.5C 140.5,632.833 128.5,638.167 116.5,643.5C 116.5,644.5 116.5,645.5 116.5,646.5C 103.167,652.5 89.8333,658.5 76.5,664.5C 76.5,665.5 76.5,666.5 76.5,667.5C 72.5,668.833 68.5,670.167 64.5,671.5C 64.5,672.833 64.5,674.167 64.5,675.5C 59.214,676.353 55.214,674.52 52.5,670C 47.7249,655.547 42.8916,641.047 38,626.5C 35.7002,618.971 34.2002,611.305 33.5,603.5C 32.5,603.5 31.5,603.5 30.5,603.5C 25.6783,579.564 21.1783,555.564 17,531.5C 15.8335,517.502 14.6669,503.502 13.5,489.5C 12.914,489.291 12.414,488.957 12,488.5C 11.3333,468.167 11.3333,447.833 12,427.5C 12.2492,426.376 12.7492,425.376 13.5,424.5C 15.0646,400.284 18.2313,376.284 23,352.5C 25.7431,342.194 28.2431,331.86 30.5,321.5C 31.5,321.5 32.5,321.5 33.5,321.5C 33.6888,317.002 34.6888,312.669 36.5,308.5C 40.4712,296.57 44.9712,284.903 50,273.5C 56.3377,261.491 62.671,249.491 69,237.5C 78.4049,223.151 87.9049,208.818 97.5,194.5C 102.817,187.85 108.484,181.516 114.5,175.5C 120.122,167.877 126.456,160.877 133.5,154.5C 134.167,153.167 134.833,151.833 135.5,150.5C 148.484,138.851 161.484,127.184 174.5,115.5C 178.595,113.241 182.262,110.407 185.5,107C 186.793,106.51 188.127,106.343 189.5,106.5 Z"/></g>
<g><path style="opacity:0.271" fill="#f7fcfb" d="M 140.5,557.5 C 141.833,557.5 143.167,557.5 144.5,557.5C 144.5,561.833 144.5,566.167 144.5,570.5C 142.943,566.347 141.61,562.014 140.5,557.5 Z"/></g>
<g><path style="opacity:0.714" fill="#9ddad0" d="M 22.5,551.5 C 23.1174,551.611 23.6174,551.944 24,552.5C 24.4983,555.817 24.665,559.15 24.5,562.5C 23.6931,558.979 23.0264,555.312 22.5,551.5 Z"/></g>
<g><path style="opacity:0.839" fill="#9edbd0" d="M 831.5,554.5 C 831.037,557.33 830.371,559.997 829.5,562.5C 829.337,560.143 829.503,557.81 830,555.5C 830.383,554.944 830.883,554.611 831.5,554.5 Z"/></g>
<g><path style="opacity:0.918" fill="#90d6c9" d="M 829.5,564.5 C 828.882,568.201 828.049,571.867 827,575.5C 826.617,576.056 826.117,576.389 825.5,576.5C 826.752,573.017 827.586,569.351 828,565.5C 828.383,564.944 828.883,564.611 829.5,564.5 Z"/></g>
<g><path style="opacity:0.281" fill="#f9fdfc" d="M 145.5,572.5 C 146.5,572.5 147.5,572.5 148.5,572.5C 148.5,575.833 148.5,579.167 148.5,582.5C 146.975,579.417 145.975,576.084 145.5,572.5 Z"/></g>
<g><path style="opacity:0.647" fill="#b5e4db" d="M 24.5,562.5 C 25.1174,562.611 25.6174,562.944 26,563.5C 26.3795,569.669 27.2128,575.669 28.5,581.5C 26.1863,575.558 24.8529,569.225 24.5,562.5 Z"/></g>
<g><path style="opacity:0.384" fill="#fbfdfd" d="M 149.5,584.5 C 150.5,584.5 151.5,584.5 152.5,584.5C 152.5,587.167 152.5,589.833 152.5,592.5C 150.98,590.11 149.98,587.443 149.5,584.5 Z"/></g>
<g><path style="opacity:0.567" fill="#bbe5de" d="M 28.5,581.5 C 30.3878,583.988 31.0545,586.988 30.5,590.5C 29.7552,587.61 29.0885,584.61 28.5,581.5 Z"/></g>
<g><path style="opacity:0.678" fill="#bee6df" d="M 825.5,579.5 C 824.253,584.404 822.586,589.07 820.5,593.5C 821.502,589.609 822.335,585.609 823,581.5C 823.708,580.619 824.542,579.953 825.5,579.5 Z"/></g>
<g><path style="opacity:0.302" fill="#f8fcfb" d="M 153.5,595.5 C 154.5,595.5 155.5,595.5 156.5,595.5C 156.5,597.833 156.5,600.167 156.5,602.5C 154.707,600.574 153.707,598.241 153.5,595.5 Z"/></g>
<g><path style="opacity:0.537" fill="#bfe7e0" d="M 30.5,590.5 C 31.1174,590.611 31.6174,590.944 32,591.5C 32.4966,593.81 32.6633,596.143 32.5,598.5C 31.6295,595.997 30.9628,593.33 30.5,590.5 Z"/></g>
<g><path style="opacity:0.461" fill="#f2faf9" d="M 948.5,561.5 C 948.5,568.5 948.5,575.5 948.5,582.5C 947.167,582.5 945.833,582.5 944.5,582.5C 944.5,588.167 944.5,593.833 944.5,599.5C 943.167,599.5 941.833,599.5 940.5,599.5C 940.5,604.167 940.5,608.833 940.5,613.5C 939.167,613.5 937.833,613.5 936.5,613.5C 940.533,596.045 944.533,578.712 948.5,561.5 Z"/></g>
<g><path style="opacity:0.363" fill="#f9fcfc" d="M 157.5,605.5 C 158.5,605.5 159.5,605.5 160.5,605.5C 160.5,607.5 160.5,609.5 160.5,611.5C 158.992,609.819 157.992,607.819 157.5,605.5 Z"/></g>
<g><path style="opacity:0.718" fill="#b3e2da" d="M 820.5,593.5 C 819.683,598.447 818.183,603.114 816,607.5C 815.503,609.81 815.337,612.143 815.5,614.5C 814.366,612.034 814.199,609.367 815,606.5C 816.701,602.013 818.534,597.68 820.5,593.5 Z"/></g>
<g><path style="opacity:0.205" fill="#f8fcfb" d="M 948.5,373.5 C 947.691,371.972 947.024,370.306 946.5,368.5C 946.209,367.351 945.376,366.684 944,366.5C 941.676,367.416 939.509,368.416 937.5,369.5C 934.516,370.325 931.849,371.659 929.5,373.5C 927.938,373.733 926.605,374.4 925.5,375.5C 917.66,377.977 910.327,381.31 903.5,385.5C 900.294,386.079 897.294,387.079 894.5,388.5C 894.5,388.833 894.5,389.167 894.5,389.5C 891.422,389.62 888.755,390.62 886.5,392.5C 878.644,395.668 870.978,399.335 863.5,403.5C 861.199,404.06 858.866,404.56 856.5,405C 855.944,405.383 855.611,405.883 855.5,406.5C 852.687,406.025 850.687,407.025 849.5,409.5C 845.784,410.68 842.117,412.013 838.5,413.5C 837.191,414.624 836.525,416.124 836.5,418C 837.022,422.665 837.689,427.165 838.5,431.5C 838.5,431.833 838.5,432.167 838.5,432.5C 840.007,461.216 839.674,489.882 837.5,518.5C 837.167,520.5 836.833,522.5 836.5,524.5C 835.015,532.349 833.682,540.349 832.5,548.5C 831.539,550.265 831.205,552.265 831.5,554.5C 830.883,554.611 830.383,554.944 830,555.5C 829.503,557.81 829.337,560.143 829.5,562.5C 829.5,563.167 829.5,563.833 829.5,564.5C 828.883,564.611 828.383,564.944 828,565.5C 827.586,569.351 826.752,573.017 825.5,576.5C 825.5,577.5 825.5,578.5 825.5,579.5C 824.542,579.953 823.708,580.619 823,581.5C 822.335,585.609 821.502,589.609 820.5,593.5C 818.534,597.68 816.701,602.013 815,606.5C 814.199,609.367 814.366,612.034 815.5,614.5C 847.976,633.574 880.643,652.408 913.5,671C 914.944,671.781 916.277,671.614 917.5,670.5C 918.519,668.396 919.519,666.396 920.5,664.5C 920.5,667.5 920.5,670.5 920.5,673.5C 918.092,674.061 915.759,674.561 913.5,675C 908.623,672.068 903.957,668.901 899.5,665.5C 877.413,653.601 855.413,641.434 833.5,629C 828.452,624.142 822.452,620.975 815.5,619.5C 813.914,617.33 812.58,614.996 811.5,612.5C 835.741,548.467 843.574,482.467 835,414.5C 838.343,410.682 842.509,408.015 847.5,406.5C 853.238,404.698 858.905,402.698 864.5,400.5C 880.904,392.298 897.571,384.632 914.5,377.5C 916.743,376.526 919.076,376.192 921.5,376.5C 921.5,375.5 921.5,374.5 921.5,373.5C 927.278,371.444 932.945,369.111 938.5,366.5C 941.768,365.513 945.102,365.18 948.5,365.5C 948.5,368.167 948.5,370.833 948.5,373.5 Z"/></g>
<g><path style="opacity:0.878" fill="#a6ded4" d="M 937.5,369.5 C 935.473,371.847 932.806,373.181 929.5,373.5C 931.849,371.659 934.516,370.325 937.5,369.5 Z"/></g>
<g><path style="opacity:0.863" fill="#a4ddd2" d="M 946.5,368.5 C 943.518,368.963 940.518,369.296 937.5,369.5C 939.509,368.416 941.676,367.416 944,366.5C 945.376,366.684 946.209,367.351 946.5,368.5 Z"/></g>
<g><path style="opacity:0.602" fill="#f3faf9" d="M 936.5,613.5 C 936.5,617.167 936.5,620.833 936.5,624.5C 935.5,624.5 934.5,624.5 933.5,624.5C 933.926,620.573 934.926,616.907 936.5,613.5 Z"/></g>
<g><path style="opacity:0.553" fill="#f4fbf9" d="M 932.5,627.5 C 932.5,631.5 932.5,635.5 932.5,639.5C 931.167,639.5 929.833,639.5 928.5,639.5C 929.664,635.341 930.997,631.341 932.5,627.5 Z"/></g>
<g><path style="opacity:0.639" fill="#afe1d8" d="M 41.5,629.5 C 43.09,631.475 44.2567,633.808 45,636.5C 45.4955,638.473 45.6621,640.473 45.5,642.5C 43.4318,638.529 42.0985,634.196 41.5,629.5 Z"/></g>
<g><path style="opacity:0.528" fill="#f3faf9" d="M 928.5,640.5 C 928.5,644.5 928.5,648.5 928.5,652.5C 927.167,652.5 925.833,652.5 924.5,652.5C 925.262,648.215 926.595,644.215 928.5,640.5 Z"/></g>
<g><path style="opacity:0.576" fill="#f5fbfa" d="M 924.5,653.5 C 924.5,657.167 924.5,660.833 924.5,664.5C 923.167,664.5 921.833,664.5 920.5,664.5C 921.459,660.617 922.792,656.95 924.5,653.5 Z"/></g>
</svg>
